# AST/ASF file generated using VICON BodyLanguage
# -----------------------------------------------
:version 1.10
:name VICON
:units
  mass 1.0
  length 0.45
  angle deg
:documentation
   .ast/.asf automatically generated from VICON data using
   VICON BodyBuilder and BodyLanguage model FoxedUp or BRILLIANT.MOD
:root
   order TX TY TZ RX RY RZ
   axis XYZ
   position 0 0 0  
   orientation 0 0 0 
:bonedata
  begin
     id 1 
     name lhipjoint
     direction 0.57768 -0.667037 0.470475 
     length 2.36008 
     axis 0 0 0  XYZ
  end
  begin
     id 2 
     name lfemur
     direction 0.34202 -0.939693 0  
     length 6.97235  
     axis 0 0 20  XYZ
    dof rx ry rz
    limits (-160.0 20.0)
           (-70.0 70.0)
           (-60.0 70.0)
  end
  begin
     id 3 
     name ltibia
     direction 0.34202 -0.939693 0   
     length 6.93428   
     axis 0 0 20   XYZ
    dof rx
    limits (-10.0 170.0)
  end
  begin
     id 4 
     name lfoot
     direction 0.133018 -0.365463 0.921272   
     length 2.18603   
     axis -90 7.62852e-016 20   XYZ
    dof rx rz
    limits (-45.0 90.0)
           (-70.0 20.0)
  end
  begin
     id 5 
     name ltoes
     direction 1.53519e-011 -4.22055e-011 1   
     length 1.07924   
     axis -90 7.62852e-016 20   XYZ
    dof rx
    limits (-90.0 20.0)
  end
  begin
     id 6 
     name rhipjoint
     direction -0.577712 -0.667019 0.470462   
     length 2.36015  
     axis 0 0 0  XYZ 
  end
  begin
     id 7 
     name rfemur
     direction -0.34202 -0.939693 0   
     length 6.71195   
     axis 0 0 -20   XYZ
    dof rx ry rz
    limits (-160.0 20.0)
           (-70.0 70.0)
           (-70.0 60.0)
  end
  begin
     id 8 
     name rtibia
     direction -0.34202 -0.939693 0   
     length 7.04592   
     axis 0 0 -20   XYZ
    dof rx
    limits (-10.0 170.0)
 end
 begin
     id 9 
     name rfoot
     direction -0.113796 -0.312651 0.943027   
     length 2.03846  
     axis -90 -7.62852e-016 -20   XYZ
    dof rx rz
    limits (-45.0 90.0)
           (-20.0 70.0)
  end
  begin
     id 10 
     name rtoes
     direction -1.53586e-011 -4.218e-011 1   
     length 1.01562   
     axis -90 -7.62852e-016 -20   XYZ
    dof rx
    limits (-90.0 20.0)
  end
  begin
     id 11 
     name lowerback
     direction -0.0417299 0.991937 -0.119667   
     length 2.05257   
     axis 0 0 0   XYZ
    dof rx ry rz
    limits (-20.0 45.0)
           (-30.0 30.0)
           (-30.0 30.0)
  end
  begin
     id 12 
     name upperback
     direction -0.00017666 0.999999 0.00105178   
     length 2.05693   
     axis 0 0 0   XYZ
    dof rx ry rz
    limits (-20.0 45.0)
           (-30.0 30.0)
           (-30.0 30.0)
  end
  begin
     id 13 
     name thorax
     direction 0.0185169 0.998203 0.0569866   
     length 2.0932   
     axis 0 0 0   XYZ
    dof rx ry rz
    limits (-20.0 45.0)
           (-30.0 30.0)
           (-30.0 30.0)
  end
  begin
     id 14 
     name lowerneck
     direction -0.0212406 0.982645 0.184277   
     length 1.72509   
     axis 0 0 0   XYZ
    dof rx ry rz
    limits (-20.0 45.0)
           (-30.0 30.0)
           (-30.0 30.0)
  end
  begin
     id 15 
     name upperneck
     direction 0.00528579 0.965323 -0.261004   
     length 1.76294   
     axis 0 0 0   XYZ
    dof rx ry rz
    limits (-20.0 45.0)
           (-30.0 30.0)
           (-30.0 30.0)
  end
  begin
     id 16
     name head
     direction 0.00695421 0.994078 -0.108445  
     length 1.78678  
     axis 0 0 0   XYZ
    dof rx ry rz
    limits (-20.0 45.0)
           (-30.0 30.0)
           (-30.0 30.0)
  end
  begin
     id 17 
     name lclavicle
     direction 0.97277 0.211305 -0.095232  
     length 3.84823  
     axis 0 0 0   XYZ
    dof ry rz
    limits (-20.0 10.0)
           (0.0 20.0)
  end
  begin
     id 18 
     name lhumerus
     direction 1 -4.48957e-011 -1.98313e-027   
     length 4.97185   
     axis 180 -30 -90   XYZ
    dof rx ry rz
    limits (-60.0 90.0)
           (-90.0 90.0)
           (-90.0 90.0)
  end
  begin
     id 19
     name lradius
     direction 1 -4.4898e-011 7.31063e-027   
     length 3.35811   
     axis 180 -30 -90   XYZ
    dof rx
    limits (-10.0 170.0)
  end
  begin
     id 20
     name lwrist
     direction 1 -4.48938e-011 9.95048e-027   
     length 1.67905   
     axis -8.75986e-015 90 90   XYZ
    dof ry
    limits (-180.0 0.0)
 end
  begin
     id 21 
     name lhand
     direction 1 -4.4901e-011 1.9901e-026   
     length 0.622776   
     axis -1.26985e-014 90 90   XYZ
    dof rx rz
    limits (-90.0 90.0)
           (-45.0 45.0)
  end
  begin
     id 22 
     name lfingers
     direction 1 -4.48961e-011 3.98019e-026   
     length 0.502098   
     axis -2.5397e-014 90 90   XYZ
    dof rx
    limits (0.0 90.0)
  end
  begin
     id 23
     name lthumb
     direction 0.707107 -6.34933e-011 0.707107   
     length 0.720915   
     axis -90 45 2.85299e-015   XYZ
    dof rx rz
    limits (-45.0 45.0)
           (-45.0 45.0)
  end
  begin
     id 24 
     name rclavicle
     direction -0.990867 0.133739 -0.0172226   
     length 3.78845  
     axis 0 0 0   XYZ 
    dof ry rz
    limits (-10.0 20.0)
           (-20.0 0.0)
  end
  begin
     id 25 
     name rhumerus
     direction -1 -4.48972e-011 -1.99267e-027  
     length 4.96493   
     axis 180 30 90   XYZ
    dof rx ry rz
    limits (-90.0 60.0)
           (-90.0 90.0)
           (-90.0 90.0)
  end
  begin
     id 26 
     name rradius
     direction -1 -4.48969e-011 8.96093e-027   
     length 3.34929   
     axis 180 30 90   XYZ
    dof rx
    limits (-10.0 170.0)
  end
  begin
     id 27 
     name rwrist
     direction -1 -4.48953e-011 9.95048e-027   
     length 1.67464   
     axis -8.75986e-015 -90 -90   XYZ
    dof ry
    limits (-180.0 0.0)
  end
  begin
     id 28
     name rhand
     direction -1 -4.49001e-011 1.9901e-026   
     length 0.638041   
     axis -1.26985e-014 -90 -90   XYZ
    dof rx rz
    limits (-90.0 90.0)
           (-45.0 45.0)
  end
  begin
     id 29
     name rfingers
     direction -1 -4.48967e-011 3.98019e-026   
     length 0.514405   
     axis -2.5397e-014 -90 -90   XYZ
    dof rx
    limits (0.0 90.0)
  end
  begin
     id 30
     name rthumb
     direction -0.707107 -6.34904e-011 0.707107   
     length 0.738586   
     axis -90 -45 -2.85299e-015   XYZ
    dof rx rz
    limits (-45.0 45.0)
           (-45.0 45.0)
  end
:hierarchy
  begin
    root lhipjoint rhipjoint lowerback
    lhipjoint lfemur
    lfemur ltibia
    ltibia lfoot
    lfoot ltoes
    rhipjoint rfemur
    rfemur rtibia
    rtibia rfoot
    rfoot rtoes
    lowerback upperback
    upperback thorax
    thorax lowerneck lclavicle rclavicle
    lowerneck upperneck
    upperneck head
    lclavicle lhumerus
    lhumerus lradius
    lradius lwrist
    lwrist lhand lthumb
    lhand lfingers
    rclavicle rhumerus
    rhumerus rradius
    rradius rwrist
    rwrist rhand rthumb
    rhand rfingers
  end

#!OML:ASF E:\Mandelcareful walks\Project 1\Capture day 1\Session 1\Subject1.ASF
:FULLY-SPECIFIED
:DEGREES
128
root 6.64101 15.4384 0.328014 -130.806 -84.1423 137.73
lowerback 25.9408 -0.391291 -4.72834
upperback 7.8149 -2.50887 -1.5996
thorax -5.58956 -1.4969 1.73323
lowerneck -22.9545 -10.3258 -12.9054
upperneck 25.6006 -15.9872 16.7299
head 15.4605 -6.18834 5.68158
rclavicle -4.77083e-015 -1.39149e-014
rhumerus -45.0335 18.1587 -87.0698
rradius 61.7533
rwrist -26.1025
rhand -19.6885 -13.8756
rfingers 7.12502
rthumb 6.64052 -43.7515
lclavicle -4.77083e-015 -1.39149e-014
lhumerus -7.65424 -21.6238 81.5693
lradius 61.2471
lwrist 25.3616
lhand -25.8977 -11.4091
lfingers 7.12502
lthumb 0.644545 18.5697
rfemur -32.1729 -10.4056 3.93471
rtibia 54.722
rfoot -22.892 -8.51883
rtoes -11.713
lfemur -35.9865 14.1764 -12.0678
ltibia 56.8703
lfoot -20.5872 0.968741
ltoes -9.82757
129
root 6.65076 15.4424 0.346553 -133.738 -83.6758 140.672
lowerback 25.4589 -0.277342 -4.91956
upperback 8.07967 -2.39367 -1.62584
thorax -5.05981 -1.4695 1.759
lowerneck -22.5988 -10.4072 -12.7904
upperneck 24.5381 -15.9126 16.6891
head 14.8711 -6.18154 5.61226
rclavicle 1.19271e-014 3.97569e-015
rhumerus -41.6326 17.3935 -86.3548
rradius 59.9237
rwrist -26.692
rhand -19.7924 -13.7867
rfingers 7.12502
rthumb 6.54023 -43.6657
lclavicle 1.19271e-014 3.97569e-015
lhumerus -7.31173 -21.9904 81.4138
lradius 61.3308
lwrist 25.4929
lhand -26.6197 -12.255
lfingers 7.12502
lthumb -0.0527928 17.7248
rfemur -32.3004 -10.5182 3.82193
rtibia 54.4192
rfoot -22.7105 -7.92916
rtoes -11.8725
lfemur -35.8759 14.4209 -12.1839
ltibia 56.8601
lfoot -20.665 1.19051
ltoes -9.5798
130
root 6.63104 15.4517 0.378984 -138.359 -82.9177 144.874
lowerback 26.0548 -0.0807335 -5.00637
upperback 7.83509 -2.21942 -1.7244
thorax -5.63445 -1.36495 1.67373
lowerneck -21.5133 -10.3498 -12.8565
upperneck 23.7022 -15.7042 16.5854
head 14.2266 -6.1856 5.61382
rclavicle -6.36111e-015 2.70347e-014
rhumerus -39.2924 17.0659 -86.081
rradius 58.2816
rwrist -27.8808
rhand -19.2805 -15.5706
rfingers 7.12502
rthumb 7.03441 -45.4337
lclavicle -6.36111e-015 2.70347e-014
lhumerus -8.22349 -22.3786 81.743
lradius 61.5549
lwrist 25.3937
lhand -26.2052 -12.5385
lfingers 7.12502
lthumb 0.347546 17.4409
rfemur -31.8911 -10.4198 3.5417
rtibia 54.0602
rfoot -22.5766 -7.13263
rtoes -11.787
lfemur -34.9302 14.8057 -12.2502
ltibia 56.7909
lfoot -21.068 1.38713
ltoes -9.02481
131
root 6.66129 15.4498 0.390533 -138.074 -82.7744 145.147
lowerback 25.9424 -0.221192 -5.16152
upperback 7.44731 -2.39663 -1.61246
thorax -5.98512 -1.41778 1.94102
lowerneck -21.5858 -10.5871 -13.0075
upperneck 23.3649 -15.8087 16.316
head 14.0968 -6.26928 5.48424
rclavicle -2.18663e-015 4.25399e-014
rhumerus -36.5259 17.2366 -85.5789
rradius 56.905
rwrist -28.8401
rhand -18.9062 -15.1884
rfingers 7.12502
rthumb 7.39572 -45.0391
lclavicle -2.18663e-015 4.25399e-014
lhumerus -8.72281 -22.513 81.9218
lradius 61.6208
lwrist 25.0668
lhand -25.6126 -12.3349
lfingers 7.12502
lthumb 0.919932 17.6429
rfemur -32.6155 -10.9274 3.62024
rtibia 53.8993
rfoot -22.2602 -6.66692
rtoes -11.0922
lfemur -35.6301 14.9482 -12.4791
ltibia 56.7824
lfoot -20.9292 1.45231
ltoes -9.04879
132
root 6.67708 15.4567 0.403825 -142.303 -82.2423 149.331
lowerback 26.3493 -0.119275 -5.34759
upperback 7.2251 -2.3325 -1.48595
thorax -6.42275 -1.36678 2.18389
lowerneck -21.5426 -10.6467 -12.951
upperneck 22.9565 -15.6405 15.8072
head 13.8138 -6.25116 5.28747
rclavicle 3.02153e-014 5.1684e-015
rhumerus -33.7512 17.8195 -85.1429
rradius 55.8326
rwrist -29.029
rhand -18.2512 -15.3781
rfingers 7.12502
rthumb 8.02788 -45.2056
lclavicle 3.02153e-014 5.1684e-015
lhumerus -9.03795 -22.6446 81.9635
lradius 61.5386
lwrist 25.1169
lhand -25.8804 -12.5428
lfingers 7.12502
lthumb 0.661228 17.4359
rfemur -32.8144 -10.6183 3.83511
rtibia 53.6622
rfoot -21.9908 -6.29817
rtoes -10.5908
lfemur -35.3815 15.491 -12.2861
ltibia 56.6958
lfoot -20.8857 1.61667
ltoes -9.18718
133
root 6.66413 15.4711 0.434887 -147.249 -81.3786 153.963
lowerback 26.6688 0.083487 -5.33093
upperback 7.17849 -2.10254 -1.46388
thorax -6.64847 -1.25405 2.13902
lowerneck -21.4939 -10.7229 -12.906
upperneck 22.5077 -15.5298 15.4042
head 13.5432 -6.24928 5.1256
rclavicle 7.7526e-015 8.34896e-015
rhumerus -31.1817 18.2416 -84.7845
rradius 55.4386
rwrist -28.3844
rhand -17.5329 -16.6219
rfingers 7.12502
rthumb 8.72116 -46.4218
lclavicle 7.7526e-015 8.34896e-015
lhumerus -9.2767 -22.8944 81.9941
lradius 61.454
lwrist 25.2968
lhand -25.9604 -12.7181
lfingers 7.12502
lthumb 0.583992 17.2608
rfemur -32.7507 -10.1412 3.87357
rtibia 53.4334
rfoot -21.7891 -5.77844
rtoes -10.5055
lfemur -34.6199 15.9343 -12.1001
ltibia 56.6179
lfoot -21.1455 2.03973
ltoes -8.95247
